<?xml version="1.0" encoding="utf-8"?>
<!-- Generator: Adobe Illustrator 23.1.1, SVG Export Plug-In . SVG Version: 6.00 Build 0)  -->
<svg version="1.1" id="Capa_1" xmlns="http://www.w3.org/2000/svg" xmlns:xlink="http://www.w3.org/1999/xlink" x="0px" y="0px"
	 viewBox="0 0 429.3 429.3" style="enable-background:new 0 0 429.3 429.3;" xml:space="preserve">
<g>
	<path d="M389.2,212.7c0,16.8-13.6,30.4-30.4,30.4H246v112.8c0,16.8-13.6,30.4-30.4,30.4c-8.4,0-16-3.4-21.5-8.9
		c-5.5-5.5-8.9-13.1-8.9-21.5l0-112.8H72.5c-8.4,0-16-3.4-21.5-8.9c-5.5-5.5-8.9-13.1-8.9-21.5c0-16.8,13.6-30.4,30.4-30.4h112.8
		V69.5c0-16.8,13.6-30.4,30.4-30.4c16.8,0,30.4,13.6,30.4,30.4v112.8h112.8C375.6,182.3,389.2,195.9,389.2,212.7z"/>
</g>
</svg>
