<?xml version="1.0" encoding="utf-8"?>
<!-- Generator: Adobe Illustrator 23.1.1, SVG Export Plug-In . SVG Version: 6.00 Build 0)  -->
<svg version="1.1" id="Layer_1" focusable="false" xmlns="http://www.w3.org/2000/svg" xmlns:xlink="http://www.w3.org/1999/xlink"
	 x="0px" y="0px" viewBox="0 0 512 512" style="enable-background:new 0 0 512 512;" xml:space="preserve">
<path d="M55.9,253V93.4c0-20.7,16.8-37.5,37.5-37.5H253c10,0,19.5,4,26.5,11l165.6,165.6c14.7,14.7,14.7,38.4,0,53.1L285.6,445.1
	c-14.7,14.7-38.4,14.7-53.1,0L66.9,279.5C59.8,272.5,55.9,262.9,55.9,253z M143.2,105.6c-20.7,0-37.5,16.8-37.5,37.5
	s16.8,37.5,37.5,37.5s37.5-16.8,37.5-37.5S163.9,105.6,143.2,105.6z"/>
</svg>
